<?xml version="1.0" encoding="utf-8"?>
<svg version="1.1" xmlns:xlink="http://www.w3.org/1999/xlink" width="34px" height="23px" xmlns="http://www.w3.org/2000/svg">
  <g transform="matrix(1 0 0 1 -793 -1220 )">
    <path d="M 13.8936631944444 7.15755208333333  C 14.3609664351852 5.58029513888889  15.2340856481482 4.25759548611111  16.5130208333333 3.189453125  C 15.2537615740741 2.34092881944444  13.8715277777778 1.91666666666667  12.3663194444444 1.91666666666667  C 11.3530092592593 1.91666666666667  10.3815104166667 2.11881510416667  9.45182291666667 2.52311197916667  C 8.52213541666667 2.92740885416667  7.72280092592593 3.46896701388889  7.05381944444444 4.14778645833333  C 6.38483796296296 4.82660590277778  5.85112847222222 5.63519965277778  5.45269097222222 6.57356770833333  C 5.05425347222222 7.51193576388889  4.85503472222222 8.49522569444444  4.85503472222222 9.5234375  C 4.85503472222222 10.5616319444444  5.05425347222222 11.5499131944444  5.45269097222222 12.48828125  C 5.85112847222222 13.4266493055556  6.38483796296296 14.2352430555556  7.05381944444444 14.9140625  C 7.72280092592593 15.5928819444444  8.51967592592593 16.1344401041667  9.44444444444444 16.5387369791667  C 10.369212962963 16.9430338541667  11.3431712962963 17.1451822916667  12.3663194444444 17.1451822916667  C 13.8715277777778 17.1451822916667  15.2537615740741 16.7209201388889  16.5130208333333 15.8723958333333  C 15.2242476851852 14.8042534722222  14.3486689814815 13.4790581597222  13.8862847222222 11.8968098958333  C 13.423900462963 10.3145616319444  13.4263599537037 8.73480902777778  13.8936631944444 7.15755208333333  Z M 19.5381944444444 7.28483072916667  C 19.0856481481482 5.78244357638889  18.2395833333333 4.537109375  17 3.548828125  C 15.7604166666667 4.537109375  14.9143518518519 5.78244357638889  14.4618055555556 7.28483072916667  C 14.0092592592593 8.78721788194444  14.0067997685185 10.287109375  14.4544270833333 11.7845052083333  C 14.9020543981481 13.2819010416667  15.7505787037037 14.5247395833333  17 15.5130208333333  C 18.2494212962963 14.5247395833333  19.0979456018519 13.2819010416667  19.5455729166667 11.7845052083333  C 19.9932002314815 10.287109375  19.9907407407407 8.78721788194444  19.5381944444444 7.28483072916667  Z M 21.6336805555556 1.91666666666667  C 20.1284722222222 1.91666666666667  18.7462384259259 2.34092881944444  17.4869791666667 3.189453125  C 18.7659143518519 4.25759548611111  19.6390335648148 5.58279079861111  20.1063368055556 7.1650390625  C 20.5736400462963 8.74728732638889  20.576099537037 10.3295355902778  20.1137152777778 11.9117838541667  C 19.6513310185185 13.4940321180556  18.7757523148148 14.8142361111111  17.4869791666667 15.8723958333333  C 18.7462384259259 16.7209201388889  20.1284722222222 17.1451822916667  21.6336805555556 17.1451822916667  C 22.6568287037037 17.1451822916667  23.630787037037 16.9430338541667  24.5555555555556 16.5387369791667  C 25.4803240740741 16.1344401041667  26.2771990740741 15.5928819444444  26.9461805555556 14.9140625  C 27.615162037037 14.2352430555556  28.1488715277778 13.4266493055556  28.5473090277778 12.48828125  C 28.9457465277778 11.5499131944444  29.1449652777778 10.5616319444444  29.1449652777778 9.5234375  C 29.1449652777778 8.49522569444444  28.9457465277778 7.51193576388889  28.5473090277778 6.57356770833333  C 28.1488715277778 5.63519965277778  27.615162037037 4.82660590277778  26.9461805555556 4.14778645833333  C 26.2771990740741 3.46896701388889  25.4778645833333 2.92740885416667  24.5481770833333 2.52311197916667  C 23.6184895833333 2.11881510416667  22.6469907407407 1.91666666666667  21.6336805555556 1.91666666666667  Z M 28.421875 14.2552083333333  L 28.421875 14.0006510416667  L 28.5251736111111 14.0006510416667  L 28.5251736111111 13.9557291666667  L 28.2743055555556 13.9557291666667  L 28.2743055555556 14.0006510416667  L 28.3776041666667 14.0006510416667  L 28.3776041666667 14.2552083333333  L 28.421875 14.2552083333333  Z M 28.8498263888889 14.0305989583333  L 28.8498263888889 14.2552083333333  L 28.9088541666667 14.2552083333333  L 28.9088541666667 13.9557291666667  L 28.8350694444444 13.9557291666667  L 28.7465277777778 14.150390625  L 28.6579861111111 13.9557291666667  L 28.5842013888889 13.9557291666667  L 28.5842013888889 14.2552083333333  L 28.6284722222222 14.2552083333333  L 28.6284722222222 14.0305989583333  L 28.7170138888889 14.2252604166667  L 28.7760416666667 14.2252604166667  L 28.8498263888889 14.0305989583333  Z M 28.7317708333333 20.8287760416667  L 28.7317708333333 20.84375  L 28.7317708333333 20.8736979166667  L 28.7022569444444 20.8736979166667  L 28.6579861111111 20.8736979166667  L 28.6579861111111 20.8287760416667  L 28.7022569444444 20.8287760416667  L 28.7317708333333 20.8287760416667  Z M 28.6727430555556 20.9036458333333  L 28.7317708333333 20.978515625  L 28.7760416666667 20.978515625  L 28.7170138888889 20.9036458333333  L 28.7465277777778 20.9036458333333  L 28.7612847222222 20.888671875  C 28.7711226851852 20.8786892361111  28.7760416666667 20.8637152777778  28.7760416666667 20.84375  C 28.7760416666667 20.8237847222222  28.7711226851852 20.8088107638889  28.7612847222222 20.798828125  L 28.7465277777778 20.7838541666667  L 28.7022569444444 20.7838541666667  L 28.6137152777778 20.7838541666667  L 28.6137152777778 20.978515625  L 28.6579861111111 20.978515625  L 28.6579861111111 20.9036458333333  L 28.6727430555556 20.9036458333333  Z M 10.2708333333333 20.4244791666667  C 10.1626157407407 20.3046875  10.1085069444444 20.1499565972222  10.1085069444444 19.9602864583333  C 10.1085069444444 19.7706163194444  10.1626157407407 19.6158854166667  10.2708333333333 19.49609375  C 10.3790509259259 19.3763020833333  10.5266203703704 19.31640625  10.7135416666667 19.31640625  C 10.890625 19.31640625  11.033275462963 19.3787977430556  11.1414930555556 19.5035807291667  C 11.2497106481481 19.6283637152778  11.3038194444444 19.7805989583333  11.3038194444444 19.9602864583333  C 11.3038194444444 20.1499565972222  11.2497106481481 20.3046875  11.1414930555556 20.4244791666667  C 11.033275462963 20.5442708333333  10.890625 20.6041666666667  10.7135416666667 20.6041666666667  C 10.5266203703704 20.6041666666667  10.3790509259259 20.5442708333333  10.2708333333333 20.4244791666667  Z M 16.5720486111111 19.7805989583333  C 16.6212384259259 19.4611545138889  16.7934027777778 19.3014322916667  17.0885416666667 19.3014322916667  C 17.3836805555556 19.3014322916667  17.5558449074074 19.4611545138889  17.6050347222222 19.7805989583333  L 16.5720486111111 19.7805989583333  Z M 22.5043402777778 20.4244791666667  C 22.3961226851852 20.3046875  22.3420138888889 20.1499565972222  22.3420138888889 19.9602864583333  C 22.3420138888889 19.7706163194444  22.3961226851852 19.6158854166667  22.5043402777778 19.49609375  C 22.6125578703704 19.3763020833333  22.7552083333333 19.31640625  22.9322916666667 19.31640625  C 23.109375 19.31640625  23.2544849537037 19.3787977430556  23.3676215277778 19.5035807291667  C 23.4807581018519 19.6283637152778  23.5373263888889 19.7805989583333  23.5373263888889 19.9602864583333  C 23.5373263888889 20.1499565972222  23.4832175925926 20.3046875  23.375 20.4244791666667  C 23.2667824074074 20.5442708333333  23.119212962963 20.6041666666667  22.9322916666667 20.6041666666667  C 22.7552083333333 20.6041666666667  22.6125578703704 20.5442708333333  22.5043402777778 20.4244791666667  Z M 26.5256076388889 20.4169921875  C 26.4124710648148 20.2922092013889  26.3559027777778 20.1399739583333  26.3559027777778 19.9602864583333  C 26.3559027777778 19.7805989583333  26.4124710648148 19.6283637152778  26.5256076388889 19.5035807291667  C 26.638744212963 19.3787977430556  26.7838541666667 19.31640625  26.9609375 19.31640625  C 27.1380208333333 19.31640625  27.283130787037 19.3787977430556  27.3962673611111 19.5035807291667  C 27.5094039351852 19.6283637152778  27.5659722222222 19.7805989583333  27.5659722222222 19.9602864583333  C 27.5659722222222 20.1499565972222  27.5094039351852 20.3046875  27.3962673611111 20.4244791666667  C 27.283130787037 20.5442708333333  27.1380208333333 20.6041666666667  26.9609375 20.6041666666667  C 26.7838541666667 20.6041666666667  26.638744212963 20.5417751736111  26.5256076388889 20.4169921875  Z M 28.7465277777778 21.0234375  C 28.7366898148148 21.0334201388889  28.7170138888889 21.0384114583333  28.6875 21.0384114583333  C 28.6678240740741 21.0384114583333  28.6481481481482 21.0334201388889  28.6284722222222 21.0234375  C 28.6186342592593 21.0234375  28.6038773148148 21.0134548611111  28.5842013888889 20.9934895833333  C 28.564525462963 20.9735243055556  28.5546875 20.9585503472222  28.5546875 20.9485677083333  C 28.544849537037 20.9286024305556  28.5399305555556 20.9086371527778  28.5399305555556 20.888671875  C 28.5399305555556 20.8587239583333  28.544849537037 20.8387586805556  28.5546875 20.8287760416667  C 28.5546875 20.8088107638889  28.564525462963 20.7888454861111  28.5842013888889 20.7688802083333  L 28.5989583333333 20.75390625  C 28.6186342592593 20.75390625  28.6284722222222 20.7489149305556  28.6284722222222 20.7389322916667  C 28.6481481481482 20.7289496527778  28.6678240740741 20.7239583333333  28.6875 20.7239583333333  C 28.7170138888889 20.7239583333333  28.7366898148148 20.7289496527778  28.7465277777778 20.7389322916667  L 28.8055555555556 20.7688802083333  L 28.8350694444444 20.8287760416667  L 28.8350694444444 20.84375  C 28.8449074074074 20.8637152777778  28.8498263888889 20.8786892361111  28.8498263888889 20.888671875  L 28.8350694444444 20.9036458333333  L 28.8350694444444 20.9485677083333  C 28.8350694444444 20.9485677083333  28.830150462963 20.9535590277778  28.8203125 20.9635416666667  L 28.8055555555556 20.9934895833333  C 28.7858796296296 21.0134548611111  28.7662037037037 21.0234375  28.7465277777778 21.0234375  Z M 8.83940972222222 19.85546875  L 8.83940972222222 20.978515625  L 9.28211805555556 20.978515625  L 9.28211805555556 19.7057291666667  C 9.28211805555556 19.4661458333333  9.21079282407408 19.2739800347222  9.06814236111111 19.1292317708333  C 8.92549189814815 18.9844835069444  8.73119212962963 18.9071180555556  8.48524305555556 18.8971354166667  C 8.17042824074074 18.8971354166667  7.93923611111111 19.0169270833333  7.79166666666667 19.2565104166667  C 7.65393518518519 19.0169270833333  7.43258101851852 18.8971354166667  7.12760416666667 18.8971354166667  C 6.89149305555556 18.8971354166667  6.69965277777778 18.9969618055556  6.55208333333333 19.1966145833333  L 6.55208333333333 18.95703125  L 6.109375 18.95703125  L 6.109375 20.978515625  L 6.55208333333333 20.978515625  L 6.55208333333333 19.85546875  C 6.55208333333333 19.49609375  6.71440972222222 19.31640625  7.0390625 19.31640625  C 7.33420138888889 19.31640625  7.48177083333333 19.49609375  7.48177083333333 19.85546875  L 7.48177083333333 20.978515625  L 7.90972222222222 20.978515625  L 7.90972222222222 19.85546875  C 7.90972222222222 19.49609375  8.07204861111111 19.31640625  8.39670138888889 19.31640625  C 8.69184027777778 19.31640625  8.83940972222222 19.49609375  8.83940972222222 19.85546875  Z M 11.2890625 20.7239583333333  L 11.2890625 20.978515625  L 11.7170138888889 20.978515625  L 11.7170138888889 19.9602864583333  L 11.7170138888889 18.95703125  L 11.2890625 18.95703125  L 11.2890625 19.1966145833333  C 11.1218171296296 18.9969618055556  10.9103009259259 18.8971354166667  10.6545138888889 18.8971354166667  C 10.369212962963 18.8971354166667  10.1331018518519 18.9969618055556  9.94618055555556 19.1966145833333  C 9.75925925925926 19.3962673611111  9.66579861111111 19.6508246527778  9.66579861111111 19.9602864583333  C 9.66579861111111 20.2697482638889  9.75925925925926 20.5243055555556  9.94618055555556 20.7239583333333  C 10.1331018518519 20.9236111111111  10.369212962963 21.0234375  10.6545138888889 21.0234375  C 10.9299768518519 21.0234375  11.1414930555556 20.9236111111111  11.2890625 20.7239583333333  Z M 13.6723090277778 20.84375  C 13.8346354166667 20.7239583333333  13.9157986111111 20.5642361111111  13.9157986111111 20.3645833333333  C 13.9157986111111 20.0251736111111  13.6846064814815 19.8255208333333  13.2222222222222 19.765625  L 13.015625 19.7356770833333  C 12.7893518518519 19.6957465277778  12.6762152777778 19.6258680555556  12.6762152777778 19.5260416666667  C 12.6762152777778 19.3763020833333  12.7991898148148 19.3014322916667  13.0451388888889 19.3014322916667  C 13.271412037037 19.3014322916667  13.4829282407407 19.3563368055556  13.6796875 19.4661458333333  L 13.8567708333333 19.1067708333333  C 13.6403356481481 18.9670138888889  13.3697916666667 18.8971354166667  13.0451388888889 18.8971354166667  C 12.7893518518519 18.8971354166667  12.5876736111111 18.95703125  12.4401041666667 19.0768229166667  C 12.2925347222222 19.1966145833333  12.21875 19.3563368055556  12.21875 19.5559895833333  C 12.21875 19.8854166666667  12.4499421296296 20.080078125  12.9123263888889 20.1399739583333  L 13.1041666666667 20.169921875  C 13.3402777777778 20.2098524305556  13.4583333333333 20.2797309027778  13.4583333333333 20.3795572916667  C 13.4583333333333 20.5492621527778  13.3058449074074 20.6341145833333  13.0008680555556 20.6341145833333  C 12.7549189814815 20.6341145833333  12.5335648148148 20.5642361111111  12.3368055555556 20.4244791666667  L 12.1449652777778 20.7688802083333  C 12.3909143518519 20.9385850694444  12.6762152777778 21.0234375  13.0008680555556 21.0234375  C 13.2861689814815 21.0234375  13.5099826388889 20.9635416666667  13.6723090277778 20.84375  Z M 15.3029513888889 21.0234375  C 15.5095486111111 21.0234375  15.6866319444444 20.9735243055556  15.8342013888889 20.8736979166667  L 15.7161458333333 20.4993489583333  C 15.5882523148148 20.5692274305556  15.4603587962963 20.6041666666667  15.3324652777778 20.6041666666667  C 15.1455439814815 20.6041666666667  15.0520833333333 20.4943576388889  15.0520833333333 20.2747395833333  L 15.0520833333333 19.361328125  L 15.7604166666667 19.361328125  L 15.7604166666667 18.95703125  L 15.0520833333333 18.95703125  L 15.0520833333333 18.3430989583333  L 14.609375 18.3430989583333  L 14.609375 18.95703125  L 14.1961805555556 18.95703125  L 14.1961805555556 19.361328125  L 14.609375 19.361328125  L 14.609375 20.2747395833333  C 14.609375 20.7738715277778  14.8405671296296 21.0234375  15.3029513888889 21.0234375  Z M 17.7821180555556 19.1891276041667  C 17.6050347222222 18.9944661458333  17.3787615740741 18.8971354166667  17.1032986111111 18.8971354166667  C 16.8179976851852 18.8971354166667  16.5818865740741 18.9969618055556  16.3949652777778 19.1966145833333  C 16.2080439814815 19.3962673611111  16.1145833333333 19.6508246527778  16.1145833333333 19.9602864583333  C 16.1145833333333 20.2797309027778  16.2105034722222 20.5367838541667  16.40234375 20.7314453125  C 16.5941840277778 20.9261067708333  16.8376736111111 21.0234375  17.1328125 21.0234375  C 17.4574652777778 21.0234375  17.7280092592593 20.9286024305556  17.9444444444444 20.7389322916667  L 17.7378472222222 20.4095052083333  C 17.5607638888889 20.5592447916667  17.3689236111111 20.6341145833333  17.1623263888889 20.6341145833333  C 16.8278356481482 20.6341145833333  16.6261574074074 20.4694010416667  16.5572916666667 20.1399739583333  L 18.0477430555556 20.1399739583333  L 18.0477430555556 19.9602864583333  C 18.0477430555556 19.6408420138889  17.9592013888889 19.3837890625  17.7821180555556 19.1891276041667  Z M 19.7595486111111 18.95703125  C 19.6710069444444 18.9171006944444  19.5677083333333 18.8971354166667  19.4496527777778 18.8971354166667  C 19.2233796296296 18.8971354166667  19.0512152777778 18.9969618055556  18.9331597222222 19.1966145833333  L 18.9331597222222 18.95703125  L 18.4904513888889 18.95703125  L 18.4904513888889 20.978515625  L 18.9331597222222 20.978515625  L 18.9331597222222 19.8404947916667  C 18.9331597222222 19.4911024305556  19.0758101851852 19.31640625  19.3611111111111 19.31640625  C 19.4594907407407 19.31640625  19.5480324074074 19.3363715277778  19.6267361111111 19.3763020833333  L 19.7595486111111 18.95703125  Z M 20.1801215277778 19.1966145833333  C 19.98828125 19.3962673611111  19.8923611111111 19.6508246527778  19.8923611111111 19.9602864583333  C 19.8923611111111 20.2697482638889  19.98828125 20.5243055555556  20.1801215277778 20.7239583333333  C 20.3719618055556 20.9236111111111  20.6302083333333 21.0234375  20.9548611111111 21.0234375  C 21.240162037037 21.0234375  21.4762731481482 20.9435763888889  21.6631944444444 20.7838541666667  L 21.4565972222222 20.4244791666667  C 21.2795138888889 20.5542534722222  21.107349537037 20.6141493055556  20.9401041666667 20.6041666666667  C 20.7630208333333 20.6041666666667  20.6179108796296 20.5442708333333  20.5047743055556 20.4244791666667  C 20.3916377314815 20.3046875  20.3350694444444 20.1499565972222  20.3350694444444 19.9602864583333  C 20.3350694444444 19.7706163194444  20.3916377314815 19.6158854166667  20.5047743055556 19.49609375  C 20.6179108796296 19.3763020833333  20.7630208333333 19.31640625  20.9401041666667 19.31640625  C 21.127025462963 19.31640625  21.2991898148148 19.3763020833333  21.4565972222222 19.49609375  L 21.6631944444444 19.13671875  C 21.4664351851852 18.9769965277778  21.2303240740741 18.8971354166667  20.9548611111111 18.8971354166667  C 20.6302083333333 18.8971354166667  20.3719618055556 18.9969618055556  20.1801215277778 19.1966145833333  Z M 23.5078125 20.7239583333333  L 23.5078125 20.978515625  L 23.9505208333333 20.978515625  L 23.9505208333333 19.9602864583333  L 23.9505208333333 18.95703125  L 23.5078125 18.95703125  L 23.5078125 19.1966145833333  C 23.3602430555556 18.9969618055556  23.1536458333333 18.8971354166667  22.8880208333333 18.8971354166667  C 22.6027199074074 18.8971354166667  22.3641493055556 18.9969618055556  22.1723090277778 19.1966145833333  C 21.98046875 19.3962673611111  21.8845486111111 19.6508246527778  21.8845486111111 19.9602864583333  C 21.8845486111111 20.2697482638889  21.98046875 20.5243055555556  22.1723090277778 20.7239583333333  C 22.3641493055556 20.9236111111111  22.6027199074074 21.0234375  22.8880208333333 21.0234375  C 23.1634837962963 21.0234375  23.3700810185185 20.9236111111111  23.5078125 20.7239583333333  Z M 25.7803819444444 18.95703125  C 25.7016782407407 18.9171006944444  25.5983796296296 18.8971354166667  25.4704861111111 18.8971354166667  C 25.244212962963 18.8971354166667  25.0720486111111 18.9969618055556  24.9539930555556 19.1966145833333  L 24.9539930555556 18.95703125  L 24.5260416666667 18.95703125  L 24.5260416666667 20.978515625  L 24.9539930555556 20.978515625  L 24.9539930555556 19.8404947916667  C 24.9539930555556 19.4911024305556  25.0966435185185 19.31640625  25.3819444444444 19.31640625  C 25.4803240740741 19.31640625  25.5688657407407 19.3363715277778  25.6475694444444 19.3763020833333  L 25.7803819444444 18.95703125  Z M 27.5364583333333 20.7239583333333  L 27.5364583333333 20.978515625  L 27.9644097222222 20.978515625  L 27.9644097222222 19.9602864583333  L 27.9644097222222 18.1334635416667  L 27.5364583333333 18.1334635416667  L 27.5364583333333 19.1966145833333  C 27.3888888888889 18.9969618055556  27.1773726851852 18.8971354166667  26.9019097222222 18.8971354166667  C 26.6264467592593 18.8971354166667  26.3927951388889 18.9994574652778  26.2009548611111 19.2041015625  C 26.0091145833333 19.4087456597222  25.9131944444444 19.6608072916667  25.9131944444444 19.9602864583333  C 25.9131944444444 20.259765625  26.0091145833333 20.5118272569444  26.2009548611111 20.7164713541667  C 26.3927951388889 20.9211154513889  26.6264467592593 21.0234375  26.9019097222222 21.0234375  C 27.1872106481482 21.0234375  27.3987268518519 20.9236111111111  27.5364583333333 20.7239583333333  Z M 28.7317708333333 20.6865234375  C 28.7120949074074 20.6815321180556  28.697337962963 20.6790364583333  28.6875 20.6790364583333  L 28.6579861111111 20.6940104166667  L 28.6137152777778 20.6940104166667  C 28.5940393518519 20.7039930555556  28.5743634259259 20.7189670138889  28.5546875 20.7389322916667  C 28.5251736111111 20.7489149305556  28.5104166666667 20.7688802083333  28.5104166666667 20.798828125  C 28.5005787037037 20.8187934027778  28.4956597222222 20.8487413194444  28.4956597222222 20.888671875  C 28.4956597222222 20.9186197916667  28.5005787037037 20.9435763888889  28.5104166666667 20.9635416666667  C 28.5104166666667 20.9835069444444  28.5251736111111 21.0034722222222  28.5546875 21.0234375  C 28.5743634259259 21.0434027777778  28.5940393518519 21.0583767361111  28.6137152777778 21.068359375  C 28.6333912037037 21.0783420138889  28.6579861111111 21.0833333333333  28.6875 21.0833333333333  C 28.7268518518519 21.0833333333333  28.7563657407407 21.0783420138889  28.7760416666667 21.068359375  C 28.7760416666667 21.0583767361111  28.7858796296296 21.0483940972222  28.8055555555556 21.0384114583333  L 28.8350694444444 21.0234375  C 28.8449074074074 21.0134548611111  28.8596643518519 20.9934895833333  28.8793402777778 20.9635416666667  C 28.8891782407407 20.9435763888889  28.8940972222222 20.9186197916667  28.8940972222222 20.888671875  C 28.8940972222222 20.8487413194444  28.8891782407407 20.8187934027778  28.8793402777778 20.798828125  C 28.8695023148148 20.7888454861111  28.8547453703704 20.7688802083333  28.8350694444444 20.7389322916667  C 28.8350694444444 20.7289496527778  28.8252314814815 20.7189670138889  28.8055555555556 20.708984375  L 28.7760416666667 20.6940104166667  C 28.7662037037037 20.6940104166667  28.7514467592593 20.6915147569444  28.7317708333333 20.6865234375  Z M 33.4392361111111 0.569010416666668  C 33.8130787037037 0.948350694444443  34 1.39756944444444  34 1.91666666666667  L 34 21.0833333333333  C 34 21.6024305555556  33.8130787037037 22.0516493055556  33.4392361111111 22.4309895833333  C 33.0653935185185 22.8103298611111  32.6226851851852 23  32.1111111111111 23  L 1.88888888888889 23  C 1.37731481481482 23  0.934606481481482 22.8103298611111  0.560763888888889 22.4309895833333  C 0.186921296296296 22.0516493055556  0 21.6024305555556  0 21.0833333333333  L 0 1.91666666666667  C 0 1.39756944444444  0.186921296296296 0.948350694444443  0.560763888888889 0.569010416666668  C 0.934606481481482 0.189670138888887  1.37731481481482 0  1.88888888888889 0  L 32.1111111111111 0  C 32.6226851851852 0  33.0653935185185 0.189670138888887  33.4392361111111 0.569010416666668  Z " fill-rule="nonzero" fill="#ffffff" stroke="none" transform="matrix(1 0 0 1 793 1220 )" />
  </g>
</svg>