<?xml version="1.0" encoding="utf-8"?>
<svg version="1.1" xmlns:xlink="http://www.w3.org/1999/xlink" width="34px" height="23px" xmlns="http://www.w3.org/2000/svg">
  <g transform="matrix(1 0 0 1 -835 -1220 )">
    <path d="M 28.5842013888889 10.1373697916667  L 29.1449652777778 12.9075520833333  L 27.1085069444444 12.9075520833333  C 27.2462384259259 12.5381944444444  27.5708912037037 11.6447482638889  28.0824652777778 10.2272135416667  L 28.1267361111111 10.0924479166667  C 28.166087962963 9.99262152777778  28.2152777777778 9.86284722222222  28.2743055555556 9.703125  C 28.3333333333333 9.54340277777778  28.3776041666667 9.41362847222222  28.4071180555556 9.31380208333333  L 28.5842013888889 10.1373697916667  Z M 1.88888888888889 6.90299479166667  C 4.94849537037037 7.69162326388889  6.93084490740741 9.36870659722222  7.8359375 11.9342447916667  L 6.98003472222222 7.51692708333333  C 6.87181712962963 6.97786458333333  6.50289351851852 6.70833333333333  5.87326388888889 6.70833333333333  L 1.91840277777778 6.70833333333333  L 1.88888888888889 6.90299479166667  Z M 13.0746527777778 6.70833333333333  L 10.4774305555556 6.70833333333333  L 8.08680555555556 13.2669270833333  L 7.8359375 11.9342447916667  C 7.58015046296296 11.2354600694444  7.16203703703704 10.5890842013889  6.58159722222222 9.9951171875  C 6.00115740740741 9.40115017361111  5.35677083333333 8.95941840277778  4.6484375 8.669921875  L 6.640625 16.306640625  L 9.22309027777778 16.306640625  L 13.0746527777778 6.70833333333333  Z M 14.0633680555556 6.70833333333333  L 12.5286458333333 16.3216145833333  L 14.9782986111111 16.3216145833333  L 16.5130208333333 6.70833333333333  L 14.0633680555556 6.70833333333333  Z M 23.5225694444444 9.029296875  L 23.8619791666667 6.94791666666667  C 23.1831597222222 6.67838541666667  22.4502314814815 6.54361979166667  21.6631944444444 6.54361979166667  C 20.453125 6.54361979166667  19.4644097222222 6.83810763888889  18.6970486111111 7.42708333333333  C 17.9296875 8.01605902777778  17.541087962963 8.77973090277778  17.53125 9.71809895833333  C 17.521412037037 10.736328125  18.2346643518519 11.6048177083333  19.6710069444444 12.3235677083333  C 20.1432291666667 12.5531684027778  20.4728009259259 12.7578125  20.6597222222222 12.9375  C 20.8466435185185 13.1171875  20.9401041666667 13.3118489583333  20.9401041666667 13.521484375  C 20.9401041666667 13.8209635416667  20.7925347222222 14.0505642361111  20.4973958333333 14.2102864583333  C 20.2022569444444 14.3700086805556  19.8628472222222 14.4498697916667  19.4791666666667 14.4498697916667  C 18.6331018518519 14.4498697916667  17.8657407407407 14.28515625  17.1770833333333 13.9557291666667  L 16.8524305555556 13.791015625  L 16.5130208333333 15.947265625  C 17.2410300925926 16.2866753472222  18.1510416666667 16.4563802083333  19.2430555555556 16.4563802083333  C 20.5219907407407 16.4663628472222  21.5475983796296 16.171875  22.3198784722222 15.5729166666667  C 23.0921585648148 14.9739583333333  23.4881365740741 14.1753472222222  23.5078125 13.1770833333333  C 23.5078125 12.1189236111111  22.8191550925926 11.2504340277778  21.4418402777778 10.5716145833333  C 20.9597800925926 10.3220486111111  20.6105324074074 10.1124131944444  20.3940972222222 9.94270833333333  C 20.177662037037 9.77300347222222  20.0694444444444 9.58333333333333  20.0694444444444 9.37369791666667  C 20.0694444444444 9.15407986111111  20.1899594907407 8.9619140625  20.4309895833333 8.79720052083333  C 20.6720196759259 8.63248697916666  21.0188078703704 8.55013020833333  21.4713541666667 8.55013020833333  C 22.1600115740741 8.54014756944444  22.7699652777778 8.65993923611111  23.3012152777778 8.90950520833333  L 23.5225694444444 9.029296875  Z M 32.1111111111111 16.3216145833333  L 30.1336805555556 6.70833333333333  L 28.2447916666667 6.70833333333333  C 27.6053240740741 6.70833333333333  27.1773726851852 6.97786458333333  26.9609375 7.51692708333333  L 23.3307291666667 16.3216145833333  L 25.8984375 16.3216145833333  L 26.4149305555556 14.8841145833333  L 29.5434027777778 14.8841145833333  C 29.5925925925926 15.1037326388889  29.6909722222222 15.5828993055556  29.8385416666667 16.3216145833333  L 32.1111111111111 16.3216145833333  Z M 33.4392361111111 0.569010416666668  C 33.8130787037037 0.948350694444443  34 1.39756944444444  34 1.91666666666667  L 34 21.0833333333333  C 34 21.6024305555556  33.8130787037037 22.0516493055556  33.4392361111111 22.4309895833333  C 33.0653935185185 22.8103298611111  32.6226851851852 23  32.1111111111111 23  L 1.88888888888889 23  C 1.37731481481482 23  0.934606481481482 22.8103298611111  0.560763888888889 22.4309895833333  C 0.186921296296296 22.0516493055556  0 21.6024305555556  0 21.0833333333333  L 0 1.91666666666667  C 0 1.39756944444444  0.186921296296296 0.948350694444443  0.560763888888889 0.569010416666668  C 0.934606481481482 0.189670138888887  1.37731481481482 0  1.88888888888889 0  L 32.1111111111111 0  C 32.6226851851852 0  33.0653935185185 0.189670138888887  33.4392361111111 0.569010416666668  Z " fill-rule="nonzero" fill="#ffffff" stroke="none" transform="matrix(1 0 0 1 835 1220 )" />
  </g>
</svg>